<?xml version="1.0" encoding="iso-8859-1"?>
<!-- Uploaded to: SVG Repo, www.svgrepo.com, Generator: SVG Repo Mixer Tools -->
<!DOCTYPE svg PUBLIC "-//W3C//DTD SVG 1.1//EN" "http://www.w3.org/Graphics/SVG/1.1/DTD/svg11.dtd">
<svg version="1.1" id="Capa_1" xmlns="http://www.w3.org/2000/svg" xmlns:xlink="http://www.w3.org/1999/xlink" 
	 width="800px" height="800px" viewBox="0 0 339.971 339.971"
	 xml:space="preserve">
<g>
	<g>
		<path style="fill:#030303;" d="M170.786,339.971c-10.776,0-19.542-8.766-19.542-19.545v-0.72l-7.036,7.033
			c-7.385,7.394-20.248,7.394-27.626,0c-3.319-3.316-5.303-7.628-5.661-12.26c-2.576,1.247-5.464,1.95-8.514,1.95
			c-10.773,0-19.539-8.766-19.539-19.539v-9.274l-5.281,5.283c-7.356,7.371-20.242,7.394-27.626,0
			c-3.688-3.693-5.727-8.6-5.727-13.814c0-5.221,2.039-10.121,5.732-13.814l5.967-5.97H45.296c-10.773,0-19.539-8.766-19.539-19.539
			c0-3.093,0.726-6.032,2.013-8.64c-2.716-0.96-5.204-2.527-7.308-4.62c-3.688-3.693-5.727-8.6-5.727-13.814
			s2.039-10.121,5.727-13.814l6.553-6.553H19.55c-10.776,0-19.539-8.771-19.539-19.545c0-10.77,8.763-19.535,19.539-19.535h8.431
			l-7.519-7.52c-3.688-3.688-5.727-8.6-5.727-13.817c0-5.224,2.039-10.129,5.727-13.82c2.693-2.693,6.038-4.506,9.675-5.286
			c-1.898-3.011-2.994-6.576-2.994-10.387c0-10.773,8.766-19.539,19.539-19.539h9.275l-5.281-5.28
			c-3.688-3.691-5.727-8.597-5.727-13.814c0-5.224,2.039-10.124,5.727-13.818c7.376-7.382,20.248-7.382,27.629,0l5.967,5.961V45.293
			c0-10.773,8.766-19.544,19.541-19.544c3.103,0,6.036,0.726,8.646,2.018c0.938-2.676,2.473-5.175,4.609-7.313
			c7.379-7.382,20.247-7.382,27.632,0l6.559,6.559v-7.471C151.259,8.766,160.022,0,170.798,0c10.772,0,19.538,8.766,19.538,19.542
			v8.437l7.524-7.525c7.388-7.382,20.236-7.382,27.63,0c2.167,2.167,3.769,4.754,4.718,7.571c3.379-2.811,7.725-4.509,12.465-4.509
			c10.772,0,19.544,8.771,19.544,19.547v9.946l0.503-0.509c7.377-7.385,20.242-7.391,27.636,0c7.616,7.617,7.616,20.013,0,27.63
			l-0.509,0.512h9.949c10.778,0,19.544,8.766,19.544,19.538c0,4.86-1.784,9.304-4.723,12.723c4.574,0.392,8.828,2.359,12.122,5.649
			c3.693,3.691,5.729,8.597,5.729,13.82c0,5.215-2.036,10.124-5.729,13.818l-7.039,7.039h0.721c10.778,0,19.538,8.763,19.538,19.536
			c0,10.772-8.777,19.544-19.562,19.544h-0.715l7.033,7.033c3.694,3.693,5.729,8.6,5.729,13.814s-2.035,10.121-5.729,13.814
			c-2.693,2.699-6.038,4.512-9.675,5.289c1.893,3.014,2.997,6.57,2.997,10.385c0,10.772-8.771,19.538-19.545,19.538h-9.949
			l0.509,0.509c3.694,3.693,5.724,8.6,5.724,13.809c0,5.215-2.029,10.127-5.724,13.815c-7.37,7.388-20.247,7.388-27.635,0
			l-0.515-0.509v9.955c0,10.772-8.76,19.538-19.533,19.538c-4.86,0-9.303-1.778-12.723-4.718c-0.383,4.575-2.361,8.841-5.654,12.123
			c-7.422,7.376-20.208,7.376-27.624,0.011l-7.045-7.044v0.731C190.324,331.205,181.559,339.971,170.786,339.971z M162.949,291.436
			v28.99c0,4.323,3.514,7.834,7.831,7.834c4.314,0,7.828-3.511,7.828-7.834V291.43l27.023,27.029
			c2.973,2.951,8.107,2.951,11.081-0.012c1.476-1.475,2.287-3.441,2.287-5.529c0-2.086-0.812-4.054-2.293-5.534l-38.099-38.105
			V188.98l56.923,56.929v53.881c0,4.317,3.517,7.828,7.828,7.828c4.316,0,7.833-3.511,7.833-7.828v-38.226l20.494,20.506
			c2.961,2.95,8.119,2.95,11.075,0c1.487-1.487,2.299-3.454,2.299-5.535c0-2.088-0.812-4.055-2.293-5.535l-20.499-20.499h38.213
			c4.317,0,7.834-3.517,7.834-7.828c0-4.317-3.517-7.834-7.834-7.834h-53.886l-54.219-54.229h76.885l38.104,38.105
			c2.962,2.961,8.114,2.955,11.064,0.005c1.486-1.492,2.305-3.448,2.305-5.54c0-2.094-0.818-4.061-2.299-5.535l-27.035-27.023
			h28.996c4.329,0,7.852-3.517,7.852-7.834c0-4.312-3.512-7.825-7.828-7.825h-28.984l27.022-27.029
			c1.481-1.481,2.299-3.448,2.299-5.538c0-2.09-0.817-4.06-2.299-5.535c-2.962-2.962-8.107-2.962-11.069,0l-38.105,38.09H188.98
			l56.929-56.926h53.887c4.312,0,7.822-3.514,7.822-7.833c0-4.317-3.511-7.828-7.822-7.828h-38.225l20.499-20.499
			c3.053-3.051,3.053-8.022,0-11.073c-2.968-2.964-8.12-2.956-11.07,0l-20.505,20.5V43.074c0-4.323-3.517-7.837-7.834-7.837
			c-4.312,0-7.822,3.52-7.822,7.837l-0.011,53.878l-56.203,56.211V78.397l38.58-38.585c3.053-3.05,3.053-8.022,0-11.073
			c-2.962-2.957-8.108-2.957-11.07,0L178.62,56.248V19.542c0-4.317-3.514-7.831-7.828-7.831c-4.317,0-7.831,3.514-7.831,7.831
			v35.747l-26.546-26.555c-2.962-2.951-8.111-2.956-11.073,0c-3.05,3.051-3.05,8.022,0,11.073l37.619,37.619v73.754l-51.325-51.333
			V45.287c0-4.323-3.514-7.834-7.831-7.834c-4.314,0-7.828,3.511-7.828,7.834v38.896L70.023,58.232
			c-2.965-2.956-8.111-2.95-11.073,0c-1.475,1.481-2.296,3.442-2.296,5.538c0,2.09,0.821,4.051,2.296,5.535l25.271,25.271H46.677
			c-4.314,0-7.828,3.514-7.828,7.828c0,4.32,3.514,7.833,7.828,7.833h53.2l54.707,54.707H78.389l-38.58-38.588
			c-2.956-2.957-8.117-2.957-11.073,0c-3.051,3.05-3.051,8.022,0,11.079l27.509,27.509H19.544c-4.317,0-7.828,3.514-7.828,7.831
			c0,4.317,3.511,7.822,7.828,7.822h35.747l-26.555,26.543c-1.476,1.487-2.296,3.454-2.296,5.541s0.815,4.055,2.296,5.529
			c2.973,2.974,8.117,2.956,11.067,0.012l37.624-37.625h73.748l-51.327,51.331H45.29c-4.317,0-7.828,3.517-7.828,7.828
			s3.511,7.827,7.828,7.827h38.896L58.241,273.55c-1.481,1.476-2.302,3.442-2.302,5.529s0.821,4.054,2.296,5.535
			c2.956,2.962,8.114,2.95,11.062,0.006l25.276-25.279v37.544c0,4.317,3.514,7.828,7.828,7.828s7.828-3.511,7.828-7.828
			l0.006-53.205l52.72-52.738v78.332l-38.099,38.104c-1.475,1.48-2.295,3.454-2.295,5.54c0,2.088,0.82,4.055,2.295,5.529
			c2.957,2.963,8.111,2.963,11.067,0L162.949,291.436z M190.324,264.43l33.502,33.514v-47.186l-33.502-33.508V264.43z
			 M121.945,248.539l-0.005,45.207l29.305-29.311v-45.201L121.945,248.539z M251.444,223.123h43.777l-30.809-30.803h-43.771
			L251.444,223.123z M54.364,220.229h40.629L122.9,192.32H82.271L54.364,220.229z M217.245,153.24h47.19l33.508-33.505h-47.186
			L217.245,153.24z M83.243,153.24h43.077l-31.283-31.286H51.972L83.243,153.24z M190.342,83.246v41.636l32.787-32.781V50.45
			L190.342,83.246z M123.352,95.002l27.904,27.907V82.285l-27.904-27.906V95.002z"/>
	</g>
</g>
</svg>